<mxfile host="app.diagrams.net" modified="2021-03-20T17:34:43.841Z" agent="5.0 (Windows NT 10.0; Win64; x64) AppleWebKit/537.36 (KHTML, like Gecko) Chrome/89.0.4389.90 Safari/537.36" etag="kUR57k0BXaF-_uyU1XI6" version="14.4.9" type="github">
  <diagram id="nFDOPOz9eYF-aGSFoJXc" name="Page-1">
    <mxGraphModel dx="1502" dy="641" grid="1" gridSize="10" guides="1" tooltips="1" connect="1" arrows="1" fold="1" page="1" pageScale="1" pageWidth="850" pageHeight="1100" math="0" shadow="0">
      <root>
        <mxCell id="0" />
        <mxCell id="1" parent="0" />
        <mxCell id="3MCEqiZ1gnWD1TDLkOd5-42" value="" style="group" vertex="1" connectable="0" parent="1">
          <mxGeometry x="280" y="360" width="520" height="110" as="geometry" />
        </mxCell>
        <mxCell id="3MCEqiZ1gnWD1TDLkOd5-24" value="" style="group" vertex="1" connectable="0" parent="3MCEqiZ1gnWD1TDLkOd5-42">
          <mxGeometry x="400" width="120" height="50" as="geometry" />
        </mxCell>
        <mxCell id="3MCEqiZ1gnWD1TDLkOd5-25" value="" style="shape=internalStorage;whiteSpace=wrap;html=1;backgroundOutline=1;dx=0;dy=20;" vertex="1" parent="3MCEqiZ1gnWD1TDLkOd5-24">
          <mxGeometry width="120" height="50" as="geometry" />
        </mxCell>
        <mxCell id="3MCEqiZ1gnWD1TDLkOd5-26" value="PK" style="rounded=0;whiteSpace=wrap;html=1;" vertex="1" parent="3MCEqiZ1gnWD1TDLkOd5-24">
          <mxGeometry y="20" width="30" height="30" as="geometry" />
        </mxCell>
        <mxCell id="3MCEqiZ1gnWD1TDLkOd5-27" value="&lt;font style=&quot;font-size: 9px&quot;&gt;Book.Tags.tag_name&lt;/font&gt;" style="rounded=0;whiteSpace=wrap;html=1;align=left;" vertex="1" parent="3MCEqiZ1gnWD1TDLkOd5-24">
          <mxGeometry x="30" y="20" width="90" height="30" as="geometry" />
        </mxCell>
        <mxCell id="3MCEqiZ1gnWD1TDLkOd5-28" value="&lt;font style=&quot;font-size: 9px&quot;&gt;tag_name&lt;/font&gt;" style="rounded=0;whiteSpace=wrap;html=1;" vertex="1" parent="3MCEqiZ1gnWD1TDLkOd5-24">
          <mxGeometry width="120" height="20" as="geometry" />
        </mxCell>
        <mxCell id="3MCEqiZ1gnWD1TDLkOd5-43" value="" style="group" vertex="1" connectable="0" parent="3MCEqiZ1gnWD1TDLkOd5-42">
          <mxGeometry width="400" height="110" as="geometry" />
        </mxCell>
        <mxCell id="3MCEqiZ1gnWD1TDLkOd5-14" value="" style="group" vertex="1" connectable="0" parent="3MCEqiZ1gnWD1TDLkOd5-43">
          <mxGeometry x="200" width="120" height="80" as="geometry" />
        </mxCell>
        <mxCell id="3MCEqiZ1gnWD1TDLkOd5-1" value="" style="shape=internalStorage;whiteSpace=wrap;html=1;backgroundOutline=1;dx=0;dy=20;" vertex="1" parent="3MCEqiZ1gnWD1TDLkOd5-14">
          <mxGeometry width="120" height="80" as="geometry" />
        </mxCell>
        <mxCell id="3MCEqiZ1gnWD1TDLkOd5-9" value="ck" style="rounded=0;whiteSpace=wrap;html=1;" vertex="1" parent="3MCEqiZ1gnWD1TDLkOd5-14">
          <mxGeometry y="20" width="30" height="30" as="geometry" />
        </mxCell>
        <mxCell id="3MCEqiZ1gnWD1TDLkOd5-10" value="ck" style="rounded=0;whiteSpace=wrap;html=1;" vertex="1" parent="3MCEqiZ1gnWD1TDLkOd5-14">
          <mxGeometry y="50" width="30" height="30" as="geometry" />
        </mxCell>
        <mxCell id="3MCEqiZ1gnWD1TDLkOd5-11" value="&lt;font style=&quot;font-size: 9px&quot;&gt;Book.Tags.isbn_13&lt;/font&gt;" style="rounded=0;whiteSpace=wrap;html=1;align=left;" vertex="1" parent="3MCEqiZ1gnWD1TDLkOd5-14">
          <mxGeometry x="30" y="20" width="90" height="30" as="geometry" />
        </mxCell>
        <mxCell id="3MCEqiZ1gnWD1TDLkOd5-12" value="&lt;font style=&quot;font-size: 9px&quot;&gt;Book.Tags.tag_name&lt;/font&gt;" style="rounded=0;whiteSpace=wrap;html=1;align=left;" vertex="1" parent="3MCEqiZ1gnWD1TDLkOd5-14">
          <mxGeometry x="30" y="50" width="90" height="30" as="geometry" />
        </mxCell>
        <mxCell id="3MCEqiZ1gnWD1TDLkOd5-13" value="&lt;font style=&quot;font-size: 9px&quot;&gt;Book.TAGS_isbn &amp;amp; name&lt;/font&gt;" style="rounded=0;whiteSpace=wrap;html=1;" vertex="1" parent="3MCEqiZ1gnWD1TDLkOd5-14">
          <mxGeometry width="120" height="20" as="geometry" />
        </mxCell>
        <mxCell id="3MCEqiZ1gnWD1TDLkOd5-39" value="" style="endArrow=none;html=1;jumpSize=6;" edge="1" parent="3MCEqiZ1gnWD1TDLkOd5-14">
          <mxGeometry width="50" height="50" relative="1" as="geometry">
            <mxPoint y="30" as="sourcePoint" />
            <mxPoint x="-10" y="40" as="targetPoint" />
          </mxGeometry>
        </mxCell>
        <mxCell id="3MCEqiZ1gnWD1TDLkOd5-40" value="" style="endArrow=none;html=1;jumpSize=6;" edge="1" parent="3MCEqiZ1gnWD1TDLkOd5-14">
          <mxGeometry width="50" height="50" relative="1" as="geometry">
            <mxPoint x="120" y="50" as="sourcePoint" />
            <mxPoint x="130" y="40" as="targetPoint" />
          </mxGeometry>
        </mxCell>
        <mxCell id="3MCEqiZ1gnWD1TDLkOd5-15" value="" style="group" vertex="1" connectable="0" parent="3MCEqiZ1gnWD1TDLkOd5-43">
          <mxGeometry width="120" height="110" as="geometry" />
        </mxCell>
        <mxCell id="3MCEqiZ1gnWD1TDLkOd5-23" value="" style="group" vertex="1" connectable="0" parent="3MCEqiZ1gnWD1TDLkOd5-15">
          <mxGeometry width="120" height="50" as="geometry" />
        </mxCell>
        <mxCell id="3MCEqiZ1gnWD1TDLkOd5-16" value="" style="shape=internalStorage;whiteSpace=wrap;html=1;backgroundOutline=1;dx=0;dy=20;" vertex="1" parent="3MCEqiZ1gnWD1TDLkOd5-23">
          <mxGeometry width="120" height="50" as="geometry" />
        </mxCell>
        <mxCell id="3MCEqiZ1gnWD1TDLkOd5-17" value="PK" style="rounded=0;whiteSpace=wrap;html=1;" vertex="1" parent="3MCEqiZ1gnWD1TDLkOd5-23">
          <mxGeometry y="20" width="30" height="30" as="geometry" />
        </mxCell>
        <mxCell id="3MCEqiZ1gnWD1TDLkOd5-19" value="&lt;font style=&quot;font-size: 9px&quot;&gt;Book.Tags.isbn_13&lt;/font&gt;" style="rounded=0;whiteSpace=wrap;html=1;align=left;" vertex="1" parent="3MCEqiZ1gnWD1TDLkOd5-23">
          <mxGeometry x="30" y="20" width="90" height="30" as="geometry" />
        </mxCell>
        <mxCell id="3MCEqiZ1gnWD1TDLkOd5-21" value="&lt;font style=&quot;font-size: 9px&quot;&gt;isbn_13&lt;/font&gt;" style="rounded=0;whiteSpace=wrap;html=1;" vertex="1" parent="3MCEqiZ1gnWD1TDLkOd5-23">
          <mxGeometry width="120" height="20" as="geometry" />
        </mxCell>
        <mxCell id="3MCEqiZ1gnWD1TDLkOd5-30" value="" style="endArrow=none;html=1;" edge="1" parent="3MCEqiZ1gnWD1TDLkOd5-43">
          <mxGeometry width="50" height="50" relative="1" as="geometry">
            <mxPoint x="120" y="39.5" as="sourcePoint" />
            <mxPoint x="200" y="39.5" as="targetPoint" />
          </mxGeometry>
        </mxCell>
        <mxCell id="3MCEqiZ1gnWD1TDLkOd5-34" value="" style="endArrow=none;html=1;" edge="1" parent="3MCEqiZ1gnWD1TDLkOd5-43">
          <mxGeometry width="50" height="50" relative="1" as="geometry">
            <mxPoint x="320" y="39.5" as="sourcePoint" />
            <mxPoint x="400" y="39.5" as="targetPoint" />
          </mxGeometry>
        </mxCell>
        <mxCell id="3MCEqiZ1gnWD1TDLkOd5-35" value="" style="endArrow=none;html=1;jumpSize=6;" edge="1" parent="3MCEqiZ1gnWD1TDLkOd5-43">
          <mxGeometry width="50" height="50" relative="1" as="geometry">
            <mxPoint x="390" y="35" as="sourcePoint" />
            <mxPoint x="390" y="45" as="targetPoint" />
          </mxGeometry>
        </mxCell>
        <mxCell id="3MCEqiZ1gnWD1TDLkOd5-37" value="" style="endArrow=none;html=1;jumpSize=6;" edge="1" parent="3MCEqiZ1gnWD1TDLkOd5-43">
          <mxGeometry width="50" height="50" relative="1" as="geometry">
            <mxPoint x="130" y="35" as="sourcePoint" />
            <mxPoint x="130" y="45" as="targetPoint" />
          </mxGeometry>
        </mxCell>
        <mxCell id="3MCEqiZ1gnWD1TDLkOd5-38" value="" style="endArrow=none;html=1;jumpSize=6;" edge="1" parent="3MCEqiZ1gnWD1TDLkOd5-43">
          <mxGeometry width="50" height="50" relative="1" as="geometry">
            <mxPoint x="320" y="30" as="sourcePoint" />
            <mxPoint x="330" y="40" as="targetPoint" />
          </mxGeometry>
        </mxCell>
        <mxCell id="3MCEqiZ1gnWD1TDLkOd5-41" value="" style="endArrow=none;html=1;jumpSize=6;" edge="1" parent="3MCEqiZ1gnWD1TDLkOd5-43">
          <mxGeometry width="50" height="50" relative="1" as="geometry">
            <mxPoint x="190" y="40" as="sourcePoint" />
            <mxPoint x="200" y="50" as="targetPoint" />
          </mxGeometry>
        </mxCell>
      </root>
    </mxGraphModel>
  </diagram>
</mxfile>
